<?xml version="1.0" encoding="utf-8"?>
<!-- Generator: Adobe Illustrator 19.2.1, SVG Export Plug-In . SVG Version: 6.00 Build 0)  -->
<svg version="1.1" id="Layer_1" xmlns="http://www.w3.org/2000/svg" xmlns:xlink="http://www.w3.org/1999/xlink" x="0px" y="0px"
	 viewBox="0 0 128 128" style="enable-background:new 0 0 128 128;" xml:space="preserve">
<style type="text/css">
	.st0{display:none;}
	.st1{display:inline;fill:#353E96;}
	.st2{display:inline;fill:#AA2F93;}
	.st3{display:inline;fill:#FD283C;}
	.st4{display:inline;fill:#009FA2;}
	.st5{opacity:1;}
	.st6{fill:rgba(53,62,150,0);}
	.st7{fill:rgba(170,47,147,0);}
	.st8{fill:rgba(253,40,60,0);}
	.st9{fill:rgba(0,159,162,0);}

	.contour {
		stroke: #ffffff;
	}
</style>
<g id="original" class="st0">
	<path class="st1" d="M26.8,54.3c-2.2-2.2-5.2-5.2-7.5-7.5c8.2-8.2,16.5-16.5,25.5-25.5c9.7,9.7,19.5,20.2,30,30
		c0.7-0.7,1.5-1.5,2.2-2.2c4.5-4.5,4.5-12,0-16.5c-8.2-7.5-16.5-15-24.7-23.2c-4.5-4.5-12-4.5-16.5,0c-9.7,9.7-18.7,18.7-28.5,28.5
		c-4.5,4.5-4.5,12,0,16.5c3,3.7,6,6.7,9,9.7l0.7,0.7C20.1,61,23.8,58,26.8,54.3z"/>
	<path class="st2" d="M64.3,110.4c-3.7-3.7-6.7-6.7-9.7-9.7c-3,3-5.2,5.2-8.2,8.2c-8.2-8.2-16.5-16.5-25.5-25.5
		C30.6,73,41.1,63.3,51.6,52.8c-0.7-0.7-1.5-1.5-2.2-2.2c-4.5-4.5-11.2-4.5-15.7,0c-9,8.2-17.2,16.5-24.7,24.7
		c-4.5,4.5-4.5,12,0,16.5c9.7,9.7,19.5,19.5,29.2,28.5c4.5,4.5,12,4.5,16.5,0c1.5-1.5,3-3,5.2-5.2C60.5,114.2,62,111.9,64.3,110.4z"
		/>
	<path class="st3" d="M75.5,75.2c0.7,0.7,1.5,1.5,1.5,1.5c4.5,4.5,12,4.5,16.5,0c8.2-8.2,15.7-15.7,24-24c4.5-4.5,4.5-12,0-16.5
		c-9-9.7-18-19.5-27.7-28.5c-4.5-4.5-12-4.5-16.5,0c-3.7,3-6.7,6-9.7,9v0.7c3,3,6.7,6.7,9.7,9.7c2.2-2.2,5.2-5.2,7.5-7.5
		c8.2,8.2,16.5,16.5,25.5,25.5C96.5,55,86,64.7,75.5,75.2z"/>
	<path class="st4" d="M108.5,82l-0.7,0.7c-8.2,7.5-15.7,15.7-24,23.2c-0.7,0.7-0.7,0.7-1.5,0C72.5,96.2,62.8,86.5,53,76.7L52.3,76
		c-0.7,1.5-1.5,1.5-1.5,2.2c-4.5,4.5-4.5,11.2,0,15.7c8.2,8.2,16.5,16.5,24.7,24.7c2.2,2.2,4.5,3,7.5,3c3.7,0,6-1.5,9-3.7
		c8.2-8.2,16.5-16.5,25.5-25.5c1.5-1.5,3-2.2,3.7-3.7c3.7-4.5,3.7-11.2,0-15.7c-3-3-6.7-6.7-9.7-9.7C110,64,110,64,109.2,64
		c-3,3-6,6-9,9c-0.7,0.7-0.7,0.7,0,1.5c2.2,2.2,4.5,4.5,6.7,6.7C107.7,81.2,107.7,81.2,108.5,82z"/>
	<path class="st3" d="M50.1,30.3c0,0-0.7,0.7-1.5,1.5c-4.5,4.5-4.5,12,0,16.5s9.7,9,14.2,14.2c0,0,0,0.7,0.7,0.7
		c3.7-3.7,6.7-6.7,9.7-9.7C65.8,45.3,58.3,37.8,50.1,30.3z"/>
	<path class="st1" d="M29.8,76.7c0,0.7,0.7,1.5,1.5,2.2c4.5,4.5,11.2,4.5,15.7,0c5.2-5.2,9.7-9.7,15-15l0,0c-3-3-6-6.7-9.7-9.7
		C44.8,61.8,37.3,69.2,29.8,76.7z"/>
	<path class="st2" d="M76.3,98.4c0.7-0.7,1.5-1.5,1.5-2.2c4.5-4.5,4.5-11.2,0-15.7c-4.5-5.2-9.7-9.7-15-15l0,0c-2.2,3-6,6.7-9,9.7
		C61.3,82.7,68.8,90.2,76.3,98.4z"/>
	<path class="st4" d="M98,51.3c-0.7-0.7-1.5-0.7-1.5-1.5c-4.5-4.5-12-4.5-16.5,0c-5.2,4.5-9.7,9-14.2,13.5C65,64,65,64,65.8,64.7
		C68,67.7,71,70,74,73c0.7,0.7,0.7,0.7,1.5,0c6.7-7.5,14.2-14.2,21.7-21.7C97.2,51.3,97.2,51.3,98,51.3z"/>
</g>
<g id="ifc">
	<path class="contour st6" d="M26.8,54.3c-2.2-2.2-5.2-5.2-7.5-7.5c8.2-8.2,16.5-16.5,25.5-25.5c9.7,9.7,19.5,20.2,30,30
		c0.7-0.7,1.5-1.5,2.2-2.2c4.5-4.5,4.5-12,0-16.5c-8.2-7.5-16.5-15-24.7-23.2c-4.5-4.5-12-4.5-16.5,0c-9.7,9.7-18.7,18.7-28.5,28.5
		c-4.5,4.5-4.5,12,0,16.5c3,3.7,6,6.7,9,9.7l0.7,0.7C20.1,61,23.8,58,26.8,54.3z"/>
	<path class="contour st7" d="M64.3,110.4c-3.7-3.7-6.7-6.7-9.7-9.7c-3,3-5.2,5.2-8.2,8.2c-8.2-8.2-16.5-16.5-25.5-25.5
		C30.6,73,41.1,63.3,51.6,52.8c-0.7-0.7-1.5-1.5-2.2-2.2c-4.5-4.5-11.2-4.5-15.7,0c-9,8.2-17.2,16.5-24.7,24.7
		c-4.5,4.5-4.5,12,0,16.5c9.7,9.7,19.5,19.5,29.2,28.5c4.5,4.5,12,4.5,16.5,0c1.5-1.5,3-3,5.2-5.2C60.5,114.2,62,111.9,64.3,110.4z"
		/>
	<path class="contour st8" d="M75.5,75.2c0.7,0.7,1.5,1.5,1.5,1.5c4.5,4.5,12,4.5,16.5,0c8.2-8.2,15.7-15.7,24-24c4.5-4.5,4.5-12,0-16.5
		c-9-9.7-18-19.5-27.7-28.5c-4.5-4.5-12-4.5-16.5,0c-3.7,3-6.7,6-9.7,9v0.7c3,3,6.7,6.7,9.7,9.7c2.2-2.2,5.2-5.2,7.5-7.5
		c8.2,8.2,16.5,16.5,25.5,25.5C96.5,55,86,64.7,75.5,75.2z"/>
	<path class="contour st9" d="M108.5,82l-0.7,0.7c-8.2,7.5-15.7,15.7-24,23.2c-0.7,0.7-0.7,0.7-1.5,0C72.5,96.2,62.8,86.5,53,76.7L52.3,76
		c-0.7,1.5-1.5,1.5-1.5,2.2c-4.5,4.5-4.5,11.2,0,15.7c8.2,8.2,16.5,16.5,24.7,24.7c2.2,2.2,4.5,3,7.5,3c3.7,0,6-1.5,9-3.7
		c8.2-8.2,16.5-16.5,25.5-25.5c1.5-1.5,3-2.2,3.7-3.7c3.7-4.5,3.7-11.2,0-15.7c-3-3-6.7-6.7-9.7-9.7C110,64,110,64,109.2,64
		c-3,3-6,6-9,9c-0.7,0.7-0.7,0.7,0,1.5c2.2,2.2,4.5,4.5,6.7,6.7C107.7,81.2,107.7,81.2,108.5,82z"/>
	<path class="contour st8" d="M50.1,30.3c0,0-0.7,0.7-1.5,1.5c-4.5,4.5-4.5,12,0,16.5s9.7,9,14.2,14.2c0,0,0,0.7,0.7,0.7
		c3.7-3.7,6.7-6.7,9.7-9.7C65.8,45.3,58.3,37.8,50.1,30.3z"/>
	<path class="contour st6" d="M29.8,76.7c0,0.7,0.7,1.5,1.5,2.2c4.5,4.5,11.2,4.5,15.7,0c5.2-5.2,9.7-9.7,15-15l0,0c-3-3-6-6.7-9.7-9.7
		C44.8,61.8,37.3,69.2,29.8,76.7z"/>
	<path class="contour st7" d="M76.3,98.4c0.7-0.7,1.5-1.5,1.5-2.2c4.5-4.5,4.5-11.2,0-15.7c-4.5-5.2-9.7-9.7-15-15l0,0c-2.2,3-6,6.7-9,9.7
		C61.3,82.7,68.8,90.2,76.3,98.4z"/>
	<path class="contour st9" d="M98,51.3c-0.7-0.7-1.5-0.7-1.5-1.5c-4.5-4.5-12-4.5-16.5,0c-5.2,4.5-9.7,9-14.2,13.5C65,64,65,64,65.8,64.7
		C68,67.7,71,70,74,73c0.7,0.7,0.7,0.7,1.5,0c6.7-7.5,14.2-14.2,21.7-21.7C97.2,51.3,97.2,51.3,98,51.3z"/>
</g>
</svg>
