<?xml version="1.0" encoding="utf-8"?>
<!-- Generator: Adobe Illustrator 19.2.1, SVG Export Plug-In . SVG Version: 6.00 Build 0)  -->
<svg version="1.1" id="Layer_1" xmlns="http://www.w3.org/2000/svg" xmlns:xlink="http://www.w3.org/1999/xlink" x="0px" y="0px"
	 viewBox="0 0 128 128" style="enable-background:new 0 0 128 128;" xml:space="preserve">
<style type="text/css">
	.st0{fill:#297FFF;}
	.st1{fill:none;stroke:#263238;stroke-linejoin:round;stroke-miterlimit:10;}
	.st2{fill:none;stroke:#263238;stroke-miterlimit:10;}
</style>
<g>
	<path class="st0" d="M64,42.8V14.6H35.8c-3.5,0-7.1,2.8-7.1,7.1v7.1c0,3.5-2.8,7.1-7.1,7.1H11.1c-3.5,0-7.1,2.8-7.1,7.1v63.5
		c0,3.5,3.5,7.1,7.1,7.1H64V99.3c-15.5,0-28.2-12.7-28.2-28.2S48.5,42.8,64,42.8z"/>
	<g>
		<path class="st1" d="M102.8,35.8c-4.2,0-7.1-2.8-7.1-7.1v-7.1c0-4.2-2.8-7.1-7.1-7.1H35.8c-4.2,0-7.1,2.8-7.1,7.1v7.1
			c0,4.2-2.8,7.1-7.1,7.1H11.1c-4.2,0-7.1,2.8-7.1,7.1v63.5c0,4.2,2.8,7.1,7.1,7.1h105.9c4.2,0,7.1-2.8,7.1-7.1V42.8
			c0-4.2-2.8-7.1-7.1-7.1H102.8z"/>
		<circle class="st2" cx="64" cy="71.1" r="28.2"/>
	</g>
</g>
</svg>
