<?xml version="1.0" encoding="utf-8"?>

<svg id="icon4" viewBox="0 0 37.3 34.2" width="100%" height="100%">
            <title>icon4</title>
            <g>
                <path d="M36.1,0H0.3c-0.4,0-0.8,0.3-0.8,0.8v32.7c0,0.4,0.3,0.8,0.8,0.8h35.8c0.4,0,0.8-0.3,0.8-0.8V0.8
    C36.8,0.3,36.5,0,36.1,0z M35.3,1.6v4.7H1.1V1.6H35.3z M1.1,32.7V7.8h34.2v24.9H1.1z"></path>
                <path d="M3.4,4.7c0.2,0,0.4-0.1,0.5-0.2c0.2-0.1,0.2-0.3,0.2-0.5c0-0.2-0.1-0.4-0.2-0.6C3.6,3,3.2,3,2.8,3.3
    C2.7,3.5,2.6,3.7,2.6,3.9c0,0.2,0.1,0.4,0.2,0.5C3,4.6,3.2,4.7,3.4,4.7z"></path>
                <path d="M6.5,4.7c0.2,0,0.4-0.1,0.5-0.2c0.2-0.1,0.2-0.3,0.2-0.5c0-0.2-0.1-0.4-0.2-0.6C6.7,3,6.3,3,5.9,3.3
    C5.8,3.5,5.7,3.7,5.7,3.9c0,0.2,0.1,0.4,0.2,0.5C6.1,4.6,6.3,4.7,6.5,4.7z"></path>
                <path d="M9.6,4.7c0.2,0,0.4-0.1,0.5-0.2c0.2-0.1,0.2-0.3,0.2-0.5c0-0.2-0.1-0.4-0.2-0.6C9.9,3,9.4,3,9.1,3.3
    C8.9,3.5,8.8,3.7,8.8,3.9c0,0.2,0.1,0.4,0.2,0.5C9.2,4.6,9.4,4.7,9.6,4.7z"></path>
                <path d="M11.2,21.8H4.9c-0.4,0-0.8,0.3-0.8,0.8v6.2c0,0.4,0.3,0.8,0.8,0.8h6.2c0.4,0,0.8-0.3,0.8-0.8v-6.2
    C11.9,22.1,11.6,21.8,11.2,21.8z M10.4,28H5.7v-4.7h4.7V28z"></path>
                <path d="M11.2,10.9H4.9c-0.4,0-0.8,0.3-0.8,0.8v6.2c0,0.4,0.3,0.8,0.8,0.8h6.2c0.4,0,0.8-0.3,0.8-0.8v-6.2
    C11.9,11.2,11.6,10.9,11.2,10.9z M10.4,17.1H5.7v-4.7h4.7V17.1z"></path>
                <path d="M29.8,12.4H16c-0.4,0-0.8,0.3-0.8,0.8c0,0.4,0.3,0.8,0.8,0.8h13.9c0.4,0,0.8-0.3,0.8-0.8
    C30.6,12.8,30.2,12.4,29.8,12.4z"></path>
                <path d="M29.8,23.3H16c-0.4,0-0.8,0.3-0.8,0.8c0,0.4,0.3,0.8,0.8,0.8h13.9c0.4,0,0.8-0.3,0.8-0.8
    C30.6,23.7,30.2,23.3,29.8,23.3z"></path>
                <path d="M16,17.1h6c0.4,0,0.8-0.3,0.8-0.8c0-0.4-0.3-0.8-0.8-0.8h-6c-0.4,0-0.8,0.3-0.8,0.8
    C15.2,16.8,15.5,17.1,16,17.1z"></path>
                <path d="M22,26.4h-6c-0.4,0-0.8,0.3-0.8,0.8c0,0.4,0.3,0.8,0.8,0.8h6c0.4,0,0.8-0.3,0.8-0.8
    C22.8,26.8,22.4,26.4,22,26.4z"></path>
            </g>
        </svg>
