<?xml version="1.0" standalone="no"?><!DOCTYPE svg PUBLIC "-//W3C//DTD SVG 1.1//EN" "http://www.w3.org/Graphics/SVG/1.1/DTD/svg11.dtd">

<svg version="1.1" id="Layer_1" xmlns="http://www.w3.org/2000/svg" xmlns:xlink="http://www.w3.org/1999/xlink" x="0px" y="0px"
   viewBox="0 0 33.5 33.5" width="100%" height="100%"
   style="border-bottom-color:rgb(246, 134, 15);border-left-color:rgb(246, 134, 15);border-right-color:rgb(246, 134, 15);border-top-color:rgb(246, 134, 15);color:rgb(246, 134, 15);height:76px;outline-color:rgb(246, 134, 15);text-align:center;text-decoration:none solid rgb(246, 134, 15);text-decoration-color:rgb(246, 134, 15);width:34px;column-rule-color:rgb(246, 134, 15);perspective-origin:17px 38px;-webkit-text-emphasis-color:rgb(246, 134, 15);-webkit-text-fill-color:rgb(246, 134, 15);-webkit-text-stroke-color:rgb(246, 134, 15);transform-origin:17px 38px;fill:rgb(255, 255, 255);caret-color:rgb(246, 134, 15);">
            <path style="background:red;" d="M29.5,0H4C1.8,0,0,1.8,0,4v25.5c0,2.2,1.8,4,4,4h25.5c2.2,0,4-1.8,4-4V4C33.5,1.8,31.7,0,29.5,0z M4,1.4h25.5
  c1.4,0,2.6,1.2,2.6,2.6v12.5L27,12.1c0.1-0.3,0.2-0.7,0.2-1c0-1.4-1.1-2.5-2.5-2.5c-1.4,0-2.5,1.1-2.5,2.5c0,0.7,0.3,1.3,0.7,1.7
  L17.4,22c-0.2-0.1-0.4-0.1-0.6-0.1c-0.5,0-1,0.2-1.4,0.4l-4.2-3.5c0.1-0.3,0.2-0.6,0.2-1c0-1.4-1.1-2.5-2.5-2.5
  c-1.4,0-2.5,1.1-2.5,2.5c0,0.4,0.1,0.7,0.2,1l-5.2,4.4V4C1.4,2.6,2.6,1.4,4,1.4z M23.6,11.1c0-0.6,0.5-1.1,1.1-1.1
  c0.6,0,1.1,0.5,1.1,1.1c0,0.6-0.5,1.1-1.1,1.1C24.1,12.2,23.6,11.7,23.6,11.1z M16.8,23.3c0.6,0,1.1,0.5,1.1,1.1
  c0,0.6-0.5,1.1-1.1,1.1c-0.6,0-1.1-0.5-1.1-1.1C15.7,23.8,16.2,23.3,16.8,23.3z M7.8,17.8c0-0.6,0.5-1.1,1.1-1.1s1.1,0.5,1.1,1.1
  c0,0.6-0.5,1.1-1.1,1.1S7.8,18.4,7.8,17.8z M29.5,32.1H4c-1.4,0-2.6-1.2-2.6-2.6v-4.6l6.1-5.1c0.4,0.3,0.9,0.4,1.4,0.4
  c0.5,0,1-0.2,1.4-0.4l4.2,3.5c-0.1,0.3-0.2,0.6-0.2,1c0,1.4,1.1,2.5,2.5,2.5c1.4,0,2.5-1.1,2.5-2.5c0-0.7-0.3-1.3-0.7-1.7l5.4-9.1
  c0.2,0.1,0.4,0.1,0.6,0.1c0.5,0,1-0.2,1.4-0.4l6,5.1v11.2C32.1,30.9,30.9,32.1,29.5,32.1z"></path>
        </svg>
